<svg xmlns="http://www.w3.org/2000/svg" width="960" height="420" viewBox="0 0 960 420">
<rect width="100%" height="100%" fill="#f7f3eb"/>
<text x="40" y="36" font-size="24" font-family="Georgia, serif" fill="#1f2a30">API Warm Time (s)</text>
<line x1="40" y1="350" x2="920" y2="350" stroke="#41535d" stroke-width="2"/>
<rect x="60" y="135" width="93" height="215" fill="#b85c38" rx="6"/>
<text x="64" y="370" font-size="12" font-family="monospace" fill="#1f2a30">besselk:direct_cuda_besselk</text>
<text x="64" y="127" font-size="12" font-family="monospace" fill="#1f2a30">1.509e-05</text>
<rect x="165" y="183" width="93" height="167" fill="#b85c38" rx="6"/>
<text x="169" y="370" font-size="12" font-family="monospace" fill="#1f2a30">besselk:routed_cuda_besselk</text>
<text x="169" y="175" font-size="12" font-family="monospace" fill="#1f2a30">1.17e-05</text>
<rect x="270" y="165" width="93" height="185" fill="#b85c38" rx="6"/>
<text x="274" y="370" font-size="12" font-family="monospace" fill="#1f2a30">incomplete_gamma_upper:direct</text>
<text x="274" y="157" font-size="12" font-family="monospace" fill="#1f2a30">1.303e-05</text>
<rect x="375" y="173" width="93" height="177" fill="#b85c38" rx="6"/>
<text x="379" y="370" font-size="12" font-family="monospace" fill="#1f2a30">incomplete_gamma_upper:routed</text>
<text x="379" y="165" font-size="12" font-family="monospace" fill="#1f2a30">1.246e-05</text>
<rect x="480" y="70" width="93" height="280" fill="#b85c38" rx="6"/>
<text x="484" y="370" font-size="12" font-family="monospace" fill="#1f2a30">arb_mat_solve:direct</text>
<text x="484" y="62" font-size="12" font-family="monospace" fill="#1f2a30">1.961e-05</text>
<rect x="585" y="138" width="93" height="212" fill="#b85c38" rx="6"/>
<text x="589" y="370" font-size="12" font-family="monospace" fill="#1f2a30">arb_mat_solve:routed</text>
<text x="589" y="130" font-size="12" font-family="monospace" fill="#1f2a30">1.491e-05</text>
<rect x="690" y="141" width="93" height="209" fill="#b85c38" rx="6"/>
<text x="694" y="370" font-size="12" font-family="monospace" fill="#1f2a30">acb_mat_solve:direct</text>
<text x="694" y="133" font-size="12" font-family="monospace" fill="#1f2a30">1.466e-05</text>
<rect x="795" y="96" width="93" height="254" fill="#b85c38" rx="6"/>
<text x="799" y="370" font-size="12" font-family="monospace" fill="#1f2a30">acb_mat_solve:routed</text>
<text x="799" y="88" font-size="12" font-family="monospace" fill="#1f2a30">1.783e-05</text>
</svg>
