<svg xmlns="http://www.w3.org/2000/svg" width="960" height="420" viewBox="0 0 960 420">
<rect width="100%" height="100%" fill="#f7f3eb"/>
<text x="40" y="36" font-size="24" font-family="Georgia, serif" fill="#1f2a30">Profile Backend Mean Time (ms)</text>
<line x1="40" y1="350" x2="920" y2="350" stroke="#41535d" stroke-width="2"/>
<rect x="60" y="70" width="93" height="280" fill="#b85c38" rx="6"/>
<text x="64" y="370" font-size="12" font-family="monospace" fill="#1f2a30">boost</text>
<text x="64" y="62" font-size="12" font-family="monospace" fill="#1f2a30">12.17</text>
<rect x="165" y="349" width="93" height="1" fill="#b85c38" rx="6"/>
<text x="169" y="370" font-size="12" font-family="monospace" fill="#1f2a30">c_arb</text>
<text x="169" y="341" font-size="12" font-family="monospace" fill="#1f2a30">0.04584</text>
<rect x="270" y="340" width="93" height="10" fill="#b85c38" rx="6"/>
<text x="274" y="370" font-size="12" font-family="monospace" fill="#1f2a30">jax_adaptive</text>
<text x="274" y="332" font-size="12" font-family="monospace" fill="#1f2a30">0.4575</text>
<rect x="375" y="342" width="93" height="8" fill="#b85c38" rx="6"/>
<text x="379" y="370" font-size="12" font-family="monospace" fill="#1f2a30">jax_basic</text>
<text x="379" y="334" font-size="12" font-family="monospace" fill="#1f2a30">0.3896</text>
<rect x="480" y="340" width="93" height="10" fill="#b85c38" rx="6"/>
<text x="484" y="370" font-size="12" font-family="monospace" fill="#1f2a30">jax_point</text>
<text x="484" y="332" font-size="12" font-family="monospace" fill="#1f2a30">0.4359</text>
<rect x="585" y="342" width="93" height="8" fill="#b85c38" rx="6"/>
<text x="589" y="370" font-size="12" font-family="monospace" fill="#1f2a30">jax_rigorous</text>
<text x="589" y="334" font-size="12" font-family="monospace" fill="#1f2a30">0.3904</text>
<rect x="690" y="340" width="93" height="10" fill="#b85c38" rx="6"/>
<text x="694" y="370" font-size="12" font-family="monospace" fill="#1f2a30">mpmath</text>
<text x="694" y="332" font-size="12" font-family="monospace" fill="#1f2a30">0.465</text>
<rect x="795" y="350" width="93" height="0" fill="#b85c38" rx="6"/>
<text x="799" y="370" font-size="12" font-family="monospace" fill="#1f2a30">scipy</text>
<text x="799" y="342" font-size="12" font-family="monospace" fill="#1f2a30">0.01159</text>
</svg>
